<svg xmlns="http://www.w3.org/2000/svg"><symbol id="appel" viewBox="0 0 26.46 26.46"><path fill="#8a0" fill-rule="evenodd" stroke="#333" stroke-linecap="round" stroke-linejoin="round" stroke-width=".53" d="M14.879 5.817c-1.846 1.281-2.848 3.034-2.237 3.915.612.88 2.604.556 4.45-.726 1.847-1.28 2.813-4.888 2.202-5.77-.611-.88-2.569 1.3-4.415 2.58z"/><path fill="#aad400" fill-rule="evenodd" stroke="#333" stroke-linecap="round" stroke-linejoin="round" stroke-width=".57" d="M18.38 7.956c-2.02.004-3.947.924-5.321 2.54-1.372-1.558-3.266-2.44-5.245-2.44-4.02 0-7.28 3.56-7.28 7.953 0 4.392 3.26 7.953 7.28 7.953 2.02-.004 3.806.152 5.181-1.465 2.022 1.884 3.406 1.364 5.385 1.365 4.021 0 7.28-3.56 7.28-7.953 0-4.392-3.26-7.952-7.28-7.953z"/><path fill="#2b1100" fill-rule="evenodd" stroke="#000" stroke-width=".26" d="M13.003 9.995c-.514-1.263-5.285-6.548-5.285-6.548L9.682 1.95l3.377 8.546"/></symbol><symbol id="appel-m" viewBox="0 0 26.46 26.46"><path fill="#8a0" fill-rule="evenodd" stroke="#333" stroke-linecap="round" stroke-linejoin="round" stroke-width=".53" d="M14.879 5.817c-1.846 1.281-2.848 3.034-2.237 3.915.612.88 2.604.556 4.45-.726 1.847-1.28 2.813-4.888 2.202-5.77-.611-.88-2.569 1.3-4.415 2.58z"/><path fill="#aad400" fill-rule="evenodd" stroke="#333" stroke-linecap="round" stroke-linejoin="round" stroke-width=".57" d="M18.38 7.956c-2.02.004-3.947.924-5.321 2.54-1.372-1.558-3.266-2.44-5.245-2.44-4.02 0-7.28 3.56-7.28 7.953 0 4.392 3.26 7.953 7.28 7.953 2.02-.004 3.806.152 5.181-1.465 2.022 1.884 3.406 1.364 5.385 1.365 4.021 0 7.28-3.56 7.28-7.953 0-4.392-3.26-7.952-7.28-7.953z"/><path fill="#2b1100" fill-rule="evenodd" stroke="#000" stroke-width=".26" d="M13.003 9.995c-.514-1.263-5.285-6.548-5.285-6.548L9.682 1.95l3.377 8.546"/><path fill="none" stroke="#000" stroke-linecap="round" stroke-width="1.59" d="M25.025 1.248L1.403 24.73"/></symbol><symbol id="bol" viewBox="0 0 26.46 26.46"><circle cx="13.36" cy="12.97" r="9.79" fill-rule="evenodd"/></symbol><symbol id="bol-b" viewBox="0 0 26.46 26.46"><circle cx="13.36" cy="12.97" r="9.79" fill="#fff" fill-rule="evenodd" stroke="#000" stroke-width=".5"/></symbol><symbol id="appel-b" viewBox="0 0 26.46 26.46"><path fill="#2b1100" fill-rule="evenodd" stroke="#000" stroke-width=".16" d="M14.939 6.893c.021-.91-1.267-5.21-1.267-5.21l1.379-.592-.199 6.135"/><path fill="#8a0" fill-rule="evenodd" stroke="#333" stroke-linecap="round" stroke-linejoin="round" stroke-width=".41" d="M16.81 3.051c-1.329 1.09-2.05 2.58-1.61 3.33.44.749 1.873.473 3.202-.617 1.328-1.09 2.024-4.158 1.584-4.907-.44-.75-1.848 1.104-3.177 2.194z"/><path fill="#aad400" fill-rule="evenodd" stroke="#333" stroke-linecap="round" stroke-linejoin="round" stroke-width=".42" d="M13.488 5.509c-1.69.057-3.419.935-4.696 2.384-1.304 1.483-.363 4.182-1.844 5.168a7.61 7.61 0 0 1-.113.074c-2.213 1.416-5.087 1.687-5.772 4.318-.785 3.012 1.03 5.985 4.056 6.64 1.52.326 2.837.724 4.16-.16 1.185 1.62 2.32 1.49 3.809 1.812 3.025.655 6.114-1.256 6.9-4.268.752-2.887-2.474-4.487-2.895-7.372-.505-3.452 1.73-5.225-.336-7.169-.457-.43-.902-.053-1.502-.247-.51-.165-1.193-1.2-1.767-1.18z"/></symbol><symbol id="bol-m" viewBox="0 0 26.46 26.46"><circle cx="13.36" cy="12.97" r="9.79" fill-rule="evenodd"/><path fill="none" stroke="#000" stroke-linecap="round" stroke-width="1.59" d="M23.682 3.175L3.175 23.417"/></symbol><symbol id="hokje-m" viewBox="0 0 26.46 26.46"><path fill-rule="evenodd" stroke="#000" stroke-linecap="round" stroke-width=".5" d="M5.16 5.42h16.27V21.3H5.16z"/><path fill="none" stroke="#000" stroke-linecap="round" stroke-width="1.59" d="M23.946 2.514L2.25 24.079"/></symbol><symbol id="hokje-b" viewBox="0 0 26.46 26.46"><path fill="#fff" fill-rule="evenodd" stroke="#000" stroke-linecap="round" stroke-width=".5" d="M5.16 5.42h16.27V21.3H5.16z"/></symbol><symbol id="knikker1" viewBox="0 0 26.46 26.46"><path fill="#fc0" fill-rule="evenodd" stroke="#1a1a1a" stroke-width=".3" d="M25.667 16.118l-22.473 4.89A12.7 12.7 0 0 0 13.29 26.02a12.7 12.7 0 0 0 12.377-9.903z"/><path fill="#ff2a2a" fill-rule="evenodd" stroke="#1a1a1a" stroke-width=".3" d="M23.9 6.35L.754 11.385A12.7 12.7 0 0 0 .59 13.32a12.7 12.7 0 0 0 2.604 7.687c7.906.135 15.57-.768 22.473-4.89a12.7 12.7 0 0 0 .323-2.797 12.7 12.7 0 0 0-2.09-6.97z"/><path fill="#fc0" fill-rule="evenodd" stroke="#1a1a1a" stroke-width=".3" d="M13.29.621A12.7 12.7 0 0 0 .755 11.385c8.32.138 15.956-1.775 23.144-5.035A12.7 12.7 0 0 0 13.29.621z"/></symbol><symbol id="knikker1-m" viewBox="0 0 26.46 26.46"><path fill="#fc0" fill-rule="evenodd" stroke="#1a1a1a" stroke-width=".3" d="M25.667 16.118l-22.473 4.89A12.7 12.7 0 0 0 13.29 26.02a12.7 12.7 0 0 0 12.377-9.903z"/><path fill="#ff2a2a" fill-rule="evenodd" stroke="#1a1a1a" stroke-width=".3" d="M23.9 6.35L.754 11.385A12.7 12.7 0 0 0 .59 13.32a12.7 12.7 0 0 0 2.604 7.687c7.906.135 15.57-.768 22.473-4.89a12.7 12.7 0 0 0 .323-2.797 12.7 12.7 0 0 0-2.09-6.97z"/><path fill="#fc0" fill-rule="evenodd" stroke="#1a1a1a" stroke-width=".3" d="M13.29.621A12.7 12.7 0 0 0 .755 11.385c8.32.138 15.956-1.775 23.144-5.035A12.7 12.7 0 0 0 13.29.621z"/><path fill="none" stroke="#000" stroke-linecap="round" stroke-linejoin="round" stroke-width="1.67" d="M25.403 1.326L1.454 25.134"/></symbol><symbol id="hokje" viewBox="0 0 26.46 26.46"><path fill-rule="evenodd" stroke="#000" stroke-linecap="round" stroke-width=".5" d="M5.16 5.42h16.27V21.3H5.16z"/></symbol><symbol id="knikker1-b" viewBox="0 0 26.46 26.46"><path fill="#fc0" fill-rule="evenodd" stroke="#1a1a1a" stroke-width=".3" d="M25.667 16.118l-22.473 4.89A12.7 12.7 0 0 0 13.29 26.02a12.7 12.7 0 0 0 12.377-9.903z"/><path fill="#ff2a2a" fill-rule="evenodd" stroke="#1a1a1a" stroke-width=".3" d="M25.946 14.131L1.849 18.78a12.7 12.7 0 0 0 1.345 2.229c7.906.135 15.57-.768 22.473-4.89a12.7 12.7 0 0 0 .279-1.987z"/><path fill="#fc0" fill-rule="evenodd" stroke="#1a1a1a" stroke-width=".3" d="M25.49 9.84c-8.647 2.832-16.975 4.6-24.828 4.788a12.7 12.7 0 0 0 1.187 4.15c8.45.308 16.439-1.258 24.097-4.647.023-.27.038-.54.044-.81a12.7 12.7 0 0 0-.5-3.481z"/><path fill="#ff2a2a" fill-rule="evenodd" stroke="#1a1a1a" stroke-width=".3" d="M23.9 6.35L.755 11.385a12.7 12.7 0 0 0-.166 1.936c.001.437.025.873.072 1.307 8.996.616 17.058-1.636 24.827-4.788a12.7 12.7 0 0 0-1.59-3.49z"/><path fill="#fc0" fill-rule="evenodd" stroke="#1a1a1a" stroke-width=".3" d="M13.29.621A12.7 12.7 0 0 0 .755 11.385c8.32.138 15.956-1.775 23.144-5.035A12.7 12.7 0 0 0 13.29.621z"/></symbol><symbol id="ster" viewBox="0 0 26.46 26.46"><path fill="#fc0" fill-rule="evenodd" stroke="#241c1c" stroke-linecap="round" stroke-linejoin="round" stroke-width=".58" d="M15.876 16.207c-.252.273-4.243-.792-4.598-.681-.355.11-3.042 3.246-3.405 3.164-.362-.082-1.436-4.07-1.709-4.322-.273-.253-4.332-1.012-4.443-1.367-.11-.355 2.807-3.279 2.89-3.641.081-.363-1.291-4.258-1.039-4.531.253-.273 4.243.791 4.598.681.355-.11 3.042-3.246 3.405-3.164.362.082 1.436 4.07 1.709 4.322.273.253 4.333 1.011 4.443 1.367.11.355-2.807 3.278-2.89 3.641-.081.363 1.291 4.258 1.039 4.53z" transform="matrix(1.47957 0 0 1.46185 -1.422 -2.013)"/><path fill="#fd5" fill-rule="evenodd" d="M20.657 20.39c-.316.337-5.305-.978-5.749-.841-.444.136-3.803 4.01-4.257 3.908-.453-.101-1.795-5.027-2.137-5.34-.34-.311-5.416-1.248-5.554-1.687-.138-.439 3.509-4.05 3.612-4.498.102-.448-1.614-5.26-1.298-5.597.315-.337 5.304.977 5.748.841.445-.136 3.804-4.01 4.257-3.909.454.102 1.796 5.028 2.137 5.34.342.312 5.417 1.249 5.555 1.688.138.438-3.51 4.05-3.612 4.498-.102.448 1.614 5.26 1.298 5.597z"/></symbol><symbol id="snoep" viewBox="0 0 26.46 26.46"><g fill-rule="evenodd" stroke="#000" transform="matrix(.20084 1.01532 -1.0232 .20244 23.853 -2.82)"><path fill="#de8787" stroke-width=".26" d="M6.487 16.484c-1.451.09-5.127-.052-5.127-.052.46.567 1.823.322 1.177 1.885l-.012.61.363.326.114 1.355c.78-.414.84.13.888.691l.4 1.016c1.028-.335.605.42.735.757L8.5 18.708c-1.63.065-3.096.683-3.982 1.866.88-1.315 2.325-1.824 3.821-1.905l-1.012-1.3c-.979.603-2.01 1.572-3.73.94 1.439.37 2.626-.29 3.69-.916"/><rect width="14.69" height="9" x="-4.49" y="14.23" fill="#ffd42a" stroke-linecap="round" stroke-width=".34" ry="2.51" transform="rotate(-36.485)"/><path fill="#de8787" stroke-width=".26" d="M18.541 7.693c.43-1.39 1.158-4.995 1.158-4.995.356 1.018.826 1.69 1.555 1.588l.595.132.231.43c.343 1.108.876.536 1.337.337l.416 1.119c.227.566.427 1.265.893.628l.563.893-5.06 2.348c.31-2.026 1.865-3.114 2.887-3.954-1.124.698-2.727 1.767-2.888 3.789l-1.025-1.29c1.484-.903 1.051-2.967 1.13-4.2-.134 1.394.313 3.702-1.097 4.167M8.467 11.709c2.24 1.963 4.048 4.4 5.67 6.736l4.253-3.297c-1.434-2.902-3.323-5.051-5.629-6.832z"/></g></symbol><symbol id="ster-m" viewBox="0 0 26.46 26.46"><path fill="#fc0" fill-rule="evenodd" stroke="#241c1c" stroke-linecap="round" stroke-linejoin="round" stroke-width=".58" d="M15.876 16.207c-.252.273-4.243-.792-4.598-.681-.355.11-3.042 3.246-3.405 3.164-.362-.082-1.436-4.07-1.709-4.322-.273-.253-4.332-1.012-4.443-1.367-.11-.355 2.807-3.279 2.89-3.641.081-.363-1.291-4.258-1.039-4.531.253-.273 4.243.791 4.598.681.355-.11 3.042-3.246 3.405-3.164.362.082 1.436 4.07 1.709 4.322.273.253 4.333 1.011 4.443 1.367.11.355-2.807 3.278-2.89 3.641-.081.363 1.291 4.258 1.039 4.53z" transform="matrix(1.47957 0 0 1.46185 -1.422 -2.013)"/><path fill="#fd5" fill-rule="evenodd" d="M20.657 20.39c-.316.337-5.305-.978-5.749-.841-.444.136-3.803 4.01-4.257 3.908-.453-.101-1.795-5.027-2.137-5.34-.34-.311-5.416-1.248-5.554-1.687-.138-.439 3.509-4.05 3.612-4.498.102-.448-1.614-5.26-1.298-5.597.315-.337 5.304.977 5.748.841.445-.136 3.804-4.01 4.257-3.909.454.102 1.796 5.028 2.137 5.34.342.312 5.417 1.249 5.555 1.688.138.438-3.51 4.05-3.612 4.498-.102.448 1.614 5.26 1.298 5.597z"/><path fill="none" stroke="#000" stroke-linecap="round" stroke-width="1.59" d="M24.79 1.435L1.31 24.963"/></symbol><symbol id="snoep-m" viewBox="0 0 26.46 26.46"><g fill-rule="evenodd" stroke="#000" transform="matrix(.20084 1.01532 -1.0232 .20244 23.853 -2.82)"><path fill="#de8787" stroke-width=".26" d="M6.487 16.484c-1.451.09-5.127-.052-5.127-.052.46.567 1.823.322 1.177 1.885l-.012.61.363.326.114 1.355c.78-.414.84.13.888.691l.4 1.016c1.028-.335.605.42.735.757L8.5 18.708c-1.63.065-3.096.683-3.982 1.866.88-1.315 2.325-1.824 3.821-1.905l-1.012-1.3c-.979.603-2.01 1.572-3.73.94 1.439.37 2.626-.29 3.69-.916"/><rect width="14.69" height="9" x="-4.49" y="14.23" fill="#ffd42a" stroke-linecap="round" stroke-width=".34" ry="2.51" transform="rotate(-36.485)"/><path fill="#de8787" stroke-width=".26" d="M18.541 7.693c.43-1.39 1.158-4.995 1.158-4.995.356 1.018.826 1.69 1.555 1.588l.595.132.231.43c.343 1.108.876.536 1.337.337l.416 1.119c.227.566.427 1.265.893.628l.563.893-5.06 2.348c.31-2.026 1.865-3.114 2.887-3.954-1.124.698-2.727 1.767-2.888 3.789l-1.025-1.29c1.484-.903 1.051-2.967 1.13-4.2-.134 1.394.313 3.702-1.097 4.167M8.467 11.709c2.24 1.963 4.048 4.4 5.67 6.736l4.253-3.297c-1.434-2.902-3.323-5.051-5.629-6.832z"/></g><path fill="none" stroke="#000" stroke-linecap="round" stroke-width="1.59" d="M23.762 2.979L1.684 24.449"/></symbol><symbol id="vogel" viewBox="0 0 26.46 26.46"><path fill="#f60" fill-rule="evenodd" stroke="#000" stroke-width=".26" d="M22.92 5.879c3.368 3.227 3.368 3.227 3.368 3.274 0 .047-3.93.14-4.257.702"/><path fill="#fc0" fill-rule="evenodd" stroke="#241c1c" stroke-linecap="round" stroke-linejoin="round" stroke-width=".53" d="M18.456 2.854c-2.644 0-3.808 1.704-4.6 3.45-.553 1.22.554 3.393.306 4.007-1.692 4.193-.164 4.587-3.64 4.486-3.576 0-7.403-4.839-8.957-3.24-.753.776-.871 4.633-.36 8.288.162 2.788 4.596 5.047 9.905 5.048 5.308 0 9.48-2.26 9.317-5.048.161-2.622-.912-5.694-.195-8.4 1.817-.675 3.01-2.313 3.01-4.135 0-2.461-2.143-4.456-4.786-4.456z"/><path fill="#ff7f2a" fill-rule="evenodd" stroke="#241c1c" stroke-linecap="round" stroke-linejoin="round" stroke-width=".66" d="M10.308 13.52c-1.757 0-6.736-.563-6.736.936 0 1.498 4.98 4.49 6.736 4.49 1.757 0 3.181-1.214 3.18-2.713.001-1.498-1.423-2.713-3.18-2.713z"/><ellipse cx="18.55" cy="6.69" fill="#fff" fill-rule="evenodd" stroke="#241c1c" stroke-linecap="round" stroke-linejoin="round" stroke-width=".26" rx="1.71" ry="1.67"/><ellipse cx="18.87" cy="7.34" fill-rule="evenodd" stroke="#241c1c" stroke-linecap="round" stroke-linejoin="round" stroke-width=".14" rx=".91" ry=".89"/></symbol><symbol id="snoep-b" viewBox="0 0 26.46 26.46"><path fill="#e5ff80" fill-rule="evenodd" stroke="#000" stroke-width=".27" d="M18.24 7.104c.383-1.455.975-5.216.975-5.216.489.582-.036 1.916 1.693 1.576l.626.112.261.435 1.364.39c-.58.707-.036.879.53 1.04l.958.613c-.549.976.307.699.627.9l-5.163 2.644c.394-1.643 1.32-3.005 2.709-3.665-1.522.627-2.333 1.992-2.717 3.494l-1.127-1.29c.813-.873 2.013-1.723 1.71-3.598.09 1.536-.823 2.607-1.678 3.562"/><rect width="15.24" height="9.36" x="-8.54" y="14.51" fill="teal" fill-rule="evenodd" stroke="#000" stroke-linecap="round" stroke-width=".36" ry="2.61" transform="matrix(-.74183 .6706 .67606 .73685 0 0)"/><path fill="#e5ff80" fill-rule="evenodd" stroke="#000" stroke-width=".27" d="M6.823 17.563c-1.508.156-5.343.165-5.343.165.97.567 1.563 1.18 1.313 1.9l.015.63.394.323c1.064.572.372.997.076 1.425l1.06.65c.535.344 1.21.688.465 1.033l.8.752 3.42-4.663c-2.136-.095-3.562 1.264-4.627 2.132.94-1 2.356-2.41 4.457-2.165L7.74 18.443c-1.222 1.323-3.247.466-4.524.297 1.453.146 3.725 1.067 4.484-.27m5.255-10.322c1.56 2.672 3.69 5.001 5.754 7.12l-4.227 3.65c-2.681-2.043-4.502-4.396-5.86-7.097z"/></symbol><symbol id="vogel-b" viewBox="0 0 26.46 26.46"><path fill="#f60" fill-rule="evenodd" stroke="#000" stroke-width=".26" d="M22.92 5.879c3.368 3.227 3.368 3.227 3.368 3.274 0 .047-3.93.14-4.257.702"/><path fill-rule="evenodd" stroke="#241c1c" stroke-linecap="round" stroke-linejoin="round" stroke-width=".53" d="M18.456 2.854c-2.644 0-3.808 1.704-4.6 3.45-.553 1.22.554 3.393.306 4.007-1.692 4.193-.164 4.587-3.64 4.486-3.576 0-7.403-4.839-8.957-3.24-.753.776-.871 4.633-.36 8.288.162 2.788 4.596 5.047 9.905 5.048 5.308 0 9.48-2.26 9.317-5.048.161-2.622-.912-5.694-.195-8.4 1.817-.675 3.01-2.313 3.01-4.135 0-2.461-2.143-4.456-4.786-4.456z"/><path fill="#ff7f2a" fill-rule="evenodd" stroke="#241c1c" stroke-linecap="round" stroke-linejoin="round" stroke-width=".66" d="M10.308 13.52c-1.757 0-6.736-.563-6.736.936 0 1.498 4.98 4.49 6.736 4.49 1.757 0 3.181-1.214 3.18-2.713.001-1.498-1.423-2.713-3.18-2.713z"/><ellipse cx="18.55" cy="6.69" fill="#fff" fill-rule="evenodd" stroke="#241c1c" stroke-linecap="round" stroke-linejoin="round" stroke-width=".26" rx="1.71" ry="1.67"/><ellipse cx="18.48" cy="6.88" fill-rule="evenodd" stroke="#241c1c" stroke-linecap="round" stroke-linejoin="round" stroke-width=".14" rx=".91" ry=".89"/></symbol><symbol id="ster-b" viewBox="0 0 26.46 26.46"><path fill="#fc0" fill-rule="evenodd" stroke="#241c1c" stroke-linecap="round" stroke-linejoin="round" stroke-width=".58" d="M15.876 16.207c-.252.273-4.243-.792-4.598-.681-.355.11-3.042 3.246-3.405 3.164-.362-.082-1.436-4.07-1.709-4.322-.273-.253-4.332-1.012-4.443-1.367-.11-.355 2.807-3.279 2.89-3.641.081-.363-1.291-4.258-1.039-4.531.253-.273 4.243.791 4.598.681.355-.11 3.042-3.246 3.405-3.164.362.082 1.436 4.07 1.709 4.322.273.253 4.333 1.011 4.443 1.367.11.355-2.807 3.278-2.89 3.641-.081.363 1.291 4.258 1.039 4.53z" transform="matrix(1.47957 0 0 1.46185 -1.422 -2.013)"/><path fill="#fd5" fill-rule="evenodd" d="M20.657 20.39c-.316.337-5.305-.978-5.749-.841-.444.136-3.803 4.01-4.257 3.908-.453-.101-1.795-5.027-2.137-5.34-.34-.311-5.416-1.248-5.554-1.687-.138-.439 3.509-4.05 3.612-4.498.102-.448-1.614-5.26-1.298-5.597.315-.337 5.304.977 5.748.841.445-.136 3.804-4.01 4.257-3.909.454.102 1.796 5.028 2.137 5.34.342.312 5.417 1.249 5.555 1.688.138.438-3.51 4.05-3.612 4.498-.102.448 1.614 5.26 1.298 5.597z"/><path fill="#fd5" fill-rule="evenodd" stroke="#333" stroke-linecap="round" stroke-linejoin="round" stroke-width=".58" d="M15.876 16.207c-.252.273-4.243-.792-4.598-.681-.355.11-3.042 3.246-3.405 3.164-.362-.082-1.436-4.07-1.709-4.322-.273-.253-4.332-1.012-4.443-1.367-.11-.355 2.807-3.279 2.89-3.641.081-.363-1.291-4.258-1.039-4.531.253-.273 4.243.791 4.598.681.355-.11 3.042-3.246 3.405-3.164.362.082 1.436 4.07 1.709 4.322.273.253 4.333 1.011 4.443 1.367.11.355-2.807 3.278-2.89 3.641-.081.363 1.291 4.258 1.039 4.53z" transform="matrix(.68939 0 0 .6516 6.262 6.509)"/><path fill="#fd5" fill-rule="evenodd" stroke="#333" stroke-linecap="round" stroke-linejoin="round" stroke-width=".58" d="M15.876 16.207c-.252.273-4.243-.792-4.598-.681-.355.11-3.042 3.246-3.405 3.164-.362-.082-1.436-4.07-1.709-4.322-.273-.253-4.332-1.012-4.443-1.367-.11-.355 2.807-3.279 2.89-3.641.081-.363-1.291-4.258-1.039-4.531.253-.273 4.243.791 4.598.681.355-.11 3.042-3.246 3.405-3.164.362.082 1.436 4.07 1.709 4.322.273.253 4.333 1.011 4.443 1.367.11.355-2.807 3.278-2.89 3.641-.081.363 1.291 4.258 1.039 4.53z" transform="matrix(.42956 0 0 .43667 8.788 8.77)"/></symbol><symbol id="vogel-m" viewBox="0 0 26.46 26.46"><path fill="#f60" fill-rule="evenodd" stroke="#000" stroke-width=".26" d="M22.92 5.879c3.368 3.227 3.368 3.227 3.368 3.274 0 .047-3.93.14-4.257.702"/><path fill="#fc0" fill-rule="evenodd" stroke="#241c1c" stroke-linecap="round" stroke-linejoin="round" stroke-width=".53" d="M18.456 2.854c-2.644 0-3.808 1.704-4.6 3.45-.553 1.22.554 3.393.306 4.007-1.692 4.193-.164 4.587-3.64 4.486-3.576 0-7.403-4.839-8.957-3.24-.753.776-.871 4.633-.36 8.288.162 2.788 4.596 5.047 9.905 5.048 5.308 0 9.48-2.26 9.317-5.048.161-2.622-.912-5.694-.195-8.4 1.817-.675 3.01-2.313 3.01-4.135 0-2.461-2.143-4.456-4.786-4.456z"/><path fill="#ff7f2a" fill-rule="evenodd" stroke="#241c1c" stroke-linecap="round" stroke-linejoin="round" stroke-width=".66" d="M10.308 13.52c-1.757 0-6.736-.563-6.736.936 0 1.498 4.98 4.49 6.736 4.49 1.757 0 3.181-1.214 3.18-2.713.001-1.498-1.423-2.713-3.18-2.713z"/><ellipse cx="18.55" cy="6.69" fill="#fff" fill-rule="evenodd" stroke="#241c1c" stroke-linecap="round" stroke-linejoin="round" stroke-width=".26" rx="1.71" ry="1.67"/><ellipse cx="18.87" cy="7.34" fill-rule="evenodd" stroke="#241c1c" stroke-linecap="round" stroke-linejoin="round" stroke-width=".14" rx=".91" ry=".89"/><path fill="none" stroke="#000" stroke-linecap="round" stroke-width="1.59" d="M24.806 1.654L1.191 25.402"/></symbol></svg>